<svg width="221" height="52" viewBox="0 0 221 52" fill="none" xmlns="http://www.w3.org/2000/svg">
<path d="M44.731 16.181L39.277 35H36.523L32.149 19.853L27.613 35L24.886 35.027L19.621 16.181H22.24L26.344 32.138L30.88 16.181H33.634L37.954 32.084L42.085 16.181H44.731ZM53.8728 35.243C52.4868 35.243 51.2268 34.928 50.0928 34.298C48.9768 33.668 48.0948 32.777 47.4468 31.625C46.8168 30.455 46.5018 29.105 46.5018 27.575C46.5018 26.063 46.8258 24.731 47.4738 23.579C48.1398 22.409 49.0398 21.518 50.1738 20.906C51.3078 20.276 52.5768 19.961 53.9808 19.961C55.3848 19.961 56.6538 20.276 57.7878 20.906C58.9218 21.518 59.8128 22.4 60.4608 23.552C61.1268 24.704 61.4598 26.045 61.4598 27.575C61.4598 29.105 61.1178 30.455 60.4338 31.625C59.7678 32.777 58.8588 33.668 57.7068 34.298C56.5548 34.928 55.2768 35.243 53.8728 35.243ZM53.8728 33.083C54.7548 33.083 55.5828 32.876 56.3568 32.462C57.1308 32.048 57.7518 31.427 58.2198 30.599C58.7058 29.771 58.9488 28.763 58.9488 27.575C58.9488 26.387 58.7148 25.379 58.2468 24.551C57.7788 23.723 57.1668 23.111 56.4108 22.715C55.6548 22.301 54.8358 22.094 53.9538 22.094C53.0538 22.094 52.2258 22.301 51.4698 22.715C50.7318 23.111 50.1378 23.723 49.6878 24.551C49.2378 25.379 49.0128 26.387 49.0128 27.575C49.0128 28.781 49.2288 29.798 49.6608 30.626C50.1108 31.454 50.7048 32.075 51.4428 32.489C52.1808 32.885 52.9908 33.083 53.8728 33.083ZM72.0343 19.934C73.1503 19.934 74.1583 20.177 75.0583 20.663C75.9583 21.131 76.6603 21.842 77.1643 22.796C77.6863 23.75 77.9473 24.911 77.9473 26.279V35H75.5173V26.63C75.5173 25.154 75.1483 24.029 74.4103 23.255C73.6723 22.463 72.6643 22.067 71.3863 22.067C70.0903 22.067 69.0553 22.472 68.2813 23.282C67.5253 24.092 67.1473 25.271 67.1473 26.819V35H64.6903V15.02H67.1473V22.31C67.6333 21.554 68.2993 20.969 69.1453 20.555C70.0093 20.141 70.9723 19.934 72.0343 19.934ZM89.1698 19.934C90.9698 19.934 92.4278 20.483 93.5438 21.581C94.6598 22.661 95.2178 24.227 95.2178 26.279V35H92.7878V26.63C92.7878 25.154 92.4188 24.029 91.6808 23.255C90.9428 22.463 89.9348 22.067 88.6568 22.067C87.3608 22.067 86.3258 22.472 85.5518 23.282C84.7958 24.092 84.4178 25.271 84.4178 26.819V35H81.9608V20.204H84.4178V22.31C84.9038 21.554 85.5608 20.969 86.3888 20.555C87.2348 20.141 88.1618 19.934 89.1698 19.934Z" fill="#4F5B4A"/>
<path d="M107.493 35L101.688 28.466V35H99.2313V15.02H101.688V26.765L107.385 20.204H110.814L103.848 27.575L110.841 35H107.493ZM119.58 35.243C118.194 35.243 116.934 34.928 115.8 34.298C114.684 33.668 113.802 32.777 113.154 31.625C112.524 30.455 112.209 29.105 112.209 27.575C112.209 26.063 112.533 24.731 113.181 23.579C113.847 22.409 114.747 21.518 115.881 20.906C117.015 20.276 118.284 19.961 119.688 19.961C121.092 19.961 122.361 20.276 123.495 20.906C124.629 21.518 125.52 22.4 126.168 23.552C126.834 24.704 127.167 26.045 127.167 27.575C127.167 29.105 126.825 30.455 126.141 31.625C125.475 32.777 124.566 33.668 123.414 34.298C122.262 34.928 120.984 35.243 119.58 35.243ZM119.58 33.083C120.462 33.083 121.29 32.876 122.064 32.462C122.838 32.048 123.459 31.427 123.927 30.599C124.413 29.771 124.656 28.763 124.656 27.575C124.656 26.387 124.422 25.379 123.954 24.551C123.486 23.723 122.874 23.111 122.118 22.715C121.362 22.301 120.543 22.094 119.661 22.094C118.761 22.094 117.933 22.301 117.177 22.715C116.439 23.111 115.845 23.723 115.395 24.551C114.945 25.379 114.72 26.387 114.72 27.575C114.72 28.781 114.936 29.798 115.368 30.626C115.818 31.454 116.412 32.075 117.15 32.489C117.888 32.885 118.698 33.083 119.58 33.083ZM148.19 19.934C149.342 19.934 150.368 20.177 151.268 20.663C152.168 21.131 152.879 21.842 153.401 22.796C153.923 23.75 154.184 24.911 154.184 26.279V35H151.754V26.63C151.754 25.154 151.385 24.029 150.647 23.255C149.927 22.463 148.946 22.067 147.704 22.067C146.426 22.067 145.409 22.481 144.653 23.309C143.897 24.119 143.519 25.298 143.519 26.846V35H141.089V26.63C141.089 25.154 140.72 24.029 139.982 23.255C139.262 22.463 138.281 22.067 137.039 22.067C135.761 22.067 134.744 22.481 133.988 23.309C133.232 24.119 132.854 25.298 132.854 26.846V35H130.397V20.204H132.854V22.337C133.34 21.563 133.988 20.969 134.798 20.555C135.626 20.141 136.535 19.934 137.525 19.934C138.767 19.934 139.865 20.213 140.819 20.771C141.773 21.329 142.484 22.148 142.952 23.228C143.366 22.184 144.05 21.374 145.004 20.798C145.958 20.222 147.02 19.934 148.19 19.934ZM164.236 22.229H161.131V35H158.674V22.229H156.757V20.204H158.674V19.151C158.674 17.495 159.097 16.289 159.943 15.533C160.807 14.759 162.184 14.372 164.074 14.372V16.424C162.994 16.424 162.229 16.64 161.779 17.072C161.347 17.486 161.131 18.179 161.131 19.151V20.204H164.236V22.229ZM173.553 35.243C172.167 35.243 170.907 34.928 169.773 34.298C168.657 33.668 167.775 32.777 167.127 31.625C166.497 30.455 166.182 29.105 166.182 27.575C166.182 26.063 166.506 24.731 167.154 23.579C167.82 22.409 168.72 21.518 169.854 20.906C170.988 20.276 172.257 19.961 173.661 19.961C175.065 19.961 176.334 20.276 177.468 20.906C178.602 21.518 179.493 22.4 180.141 23.552C180.807 24.704 181.14 26.045 181.14 27.575C181.14 29.105 180.798 30.455 180.114 31.625C179.448 32.777 178.539 33.668 177.387 34.298C176.235 34.928 174.957 35.243 173.553 35.243ZM173.553 33.083C174.435 33.083 175.263 32.876 176.037 32.462C176.811 32.048 177.432 31.427 177.9 30.599C178.386 29.771 178.629 28.763 178.629 27.575C178.629 26.387 178.395 25.379 177.927 24.551C177.459 23.723 176.847 23.111 176.091 22.715C175.335 22.301 174.516 22.094 173.634 22.094C172.734 22.094 171.906 22.301 171.15 22.715C170.412 23.111 169.818 23.723 169.368 24.551C168.918 25.379 168.693 26.387 168.693 27.575C168.693 28.781 168.909 29.798 169.341 30.626C169.791 31.454 170.385 32.075 171.123 32.489C171.861 32.885 172.671 33.083 173.553 33.083ZM186.828 22.607C187.26 21.761 187.872 21.104 188.664 20.636C189.474 20.168 190.455 19.934 191.607 19.934V22.472H190.959C188.205 22.472 186.828 23.966 186.828 26.954V35H184.371V20.204H186.828V22.607ZM197.44 22.229V30.95C197.44 31.67 197.593 32.183 197.899 32.489C198.205 32.777 198.736 32.921 199.492 32.921H201.301V35H199.087C197.719 35 196.693 34.685 196.009 34.055C195.325 33.425 194.983 32.39 194.983 30.95V22.229H193.066V20.204H194.983V16.478H197.44V20.204H201.301V22.229H197.44Z" fill="#2A2A2A"/>
</svg>
